PathFileType	4	(X/Y/Z)	Patient4_TMGait_0pt6_01_right_46.trc.trc
DataRate	CameraRate	NumFrames	NumMarkers	Units	OrigDataRate	OrigDataStartFrame	OrigNumFrames
80.000000000000	80.000000000000	4	33	mm	80.000000000000	18	       141
Frame#	Time	Sacral			L.Shoulder			Chest			R.Shoulder			Neck			R.ASIS			L.ASIS			R.Thigh.Superior			R.Thigh.Lateral			R.Thigh.Inferior			R.Patella			L.Thigh.Superior			L.Thigh.Lateral			L.Thigh.Inferior			L.Patella			L.Shank.Superior			L.Shank.Lateral			L.Shank.Inferior			R.Shank.Superior			R.Shank.Lateral			R.Shank.Inferior			R.Heel			R.Midfoot.Superior			R.Midfoot.Lateral			R.Toe			L.Heel			L.Midfoot.Lateral			L.Midfoot.Superior			L.Toe			L.Elbow			L.Wrist			R.Elbow			R.Wrist			
		X1	Y1	Z1	X2	Y2	Z2	X3	Y3	Z3	X4	Y4	Z4	X5	Y5	Z5	X6	Y6	Z6	X7	Y7	Z7	X8	Y8	Z8	X9	Y9	Z9	X10	Y10	Z10	X11	Y11	Z11	X12	Y12	Z12	X13	Y13	Z13	X14	Y14	Z14	X15	Y15	Z15	X16	Y16	Z16	X17	Y17	Z17	X18	Y18	Z18	X19	Y19	Z19	X20	Y20	Z20	X21	Y21	Z21	X22	Y22	Z22	X23	Y23	Z23	X24	Y24	Z24	X25	Y25	Z25	X26	Y26	Z26	X27	Y27	Z27	X28	Y28	Z28	X29	Y29	Z29	X30	Y30	Z30	X31	Y31	Z31	X32	Y32	Z32	X33	Y33	Z33	

18	55.562500000000	769.248740310218	1010.529851806933	418.312063575433	973.539039922670	1428.412647640836	237.123990377835	1067.905610161109	1356.557599924658	400.796311574045	983.226684224210	1435.675226859635	570.742814128457	949.562461734623	1490.090286326580	388.701618174621	992.049063282548	938.260727142455	540.766999106784	983.678311211410	956.241019266737	266.227069285686	1061.886237663578	771.342272748389	510.979542487471	1028.653421014892	648.981481634723	586.599732221432	1114.949889405004	613.172735928134	503.049154019562	1152.783435981630	532.214142015096	521.342644664594	982.642758980399	728.924765532401	298.748037697097	864.455218880179	635.875484791482	238.582141588151	922.614104387853	543.360905284097	305.191755260721	907.691506370943	479.772510884708	315.972075532000	877.428325216340	413.903378599352	310.195057334074	780.742596585133	303.182688002585	264.602358958316	826.890412959021	192.540649799042	341.093108654313	1141.244638265766	444.979559734201	530.644026573186	1096.248288226229	326.700330545917	591.766994188338	1171.397482693486	246.746051886803	538.443161454307	1093.365395962198	53.107914993833	504.459378272239	1249.798585397972	137.537339371945	548.889491915498	1177.754479837374	53.168353399626	577.995502275902	1377.224709465694	109.118843038887	573.227059036893	693.968618361641	39.089573555402	393.453641647226	765.522815577511	34.918184988727	310.773689868334	849.944702241338	95.903316699198	334.009964387173	977.438068294937	41.930986294499	303.637816606511	1014.026587900201	1090.333878182252	95.706883221215	1267.774558788659	1071.443785769749	112.964313115207	826.395210436783	1127.697721385154	678.843104656590	777.030616456376	871.551128931303	684.693548091309	
19	55.575000000000	771.229051256213	1008.505840462040	419.399727672874	974.009000319452	1427.194531771281	238.499193311614	1068.190493096972	1355.777171500102	402.377358289645	982.944814756712	1434.900952557701	572.003388246196	949.370755573916	1488.786520311583	389.989616238558	994.135892019452	936.454508438432	541.982607453118	985.864219215951	955.282376388894	267.370276879371	1062.137455157133	767.135472588655	512.672831634991	1025.658225132851	644.669462121878	586.943555933742	1112.373630621669	608.235804154718	504.255297147865	1148.764359813289	528.350140193590	521.608325062970	982.872898791638	727.426861549756	299.042969051711	863.323433858829	635.382453853993	239.256190189157	920.665521516877	542.272240568120	305.534181804269	905.105567387596	478.527063164727	316.305831873572	874.032198222778	412.982543973009	310.492048324328	775.757214875876	303.515049386664	264.890413070311	820.620262288197	192.148810226179	341.099752699408	1138.865225919105	441.568070873899	530.446925958906	1095.510264840339	322.003484164849	590.091230769202	1173.063310310872	243.968508861409	537.083716127631	1099.014752561944	49.718018600888	501.030306840514	1254.175774813874	135.588208821339	547.388856593861	1182.581946317207	50.546917604887	575.342553225646	1381.547973811857	108.208934989120	572.631398313338	686.432837681416	39.252653549075	393.348238309878	758.024917723217	34.953670262681	310.754251045883	842.495994258202	95.882756810534	333.977265459125	969.928886091125	41.658959012770	303.650650335360	1018.207804212790	1089.862666490527	97.255474784053	1271.999968653968	1077.526797246142	116.182173237387	822.856876917693	1129.408402066627	680.323298227693	770.970992702727	873.743236034440	686.790011185921	
20	55.587500000000	773.545740957840	1006.357139783193	420.710399053707	974.290166858803	1426.007057118259	240.020253885322	1068.460352728100	1355.099974106993	404.034869981545	982.619533076055	1434.037165953718	573.421294765426	949.049840908640	1487.435074701512	391.472056910100	996.589347680576	934.620216172811	543.243621547625	988.246421376540	954.178446457619	268.665478786113	1063.146470757904	763.022461413536	514.430102189603	1023.175618428307	640.455904139699	587.125265710222	1110.352480642160	603.474021261010	505.340955073090	1145.161275632140	524.323062831860	521.692223095897	983.443533383846	725.871453305244	299.447886072578	862.531861779306	634.836180092351	240.069226478504	919.107223879338	541.105845351946	305.981696690238	902.902187529716	477.143243754494	316.768240666477	870.970219617398	411.945147447305	310.906802761662	770.991327881444	303.877016188264	265.296626937696	814.441850150298	191.730513286161	341.164445697312	1136.277771636502	437.789053117370	529.993778757539	1093.594756690078	317.406464844995	588.180818752298	1172.731591830793	240.699732477635	535.505879194643	1100.862905910631	46.933509790072	497.688260440278	1255.468311959148	132.628049020156	545.471812716338	1183.606496309824	47.952875380917	572.752584552248	1382.501403798855	105.141711337881	571.766462673614	678.894906170889	39.466690875879	393.228279693592	750.540857587239	35.011381342944	310.739887099175	835.064920923378	95.884755977576	333.952930784648	962.435164867682	41.374630461960	303.646056260715	1021.994943984145	1089.371359788213	98.959267902828	1275.658778622727	1082.525498711636	119.594539121950	820.368217453900	1130.411248899690	681.966642477171	766.640893493319	875.070114301762	689.074212534302	
21	55.600000000000	776.162945961140	1004.119289528766	422.241178602869	974.407685781284	1424.851759290605	241.686812406097	1068.740009738923	1354.521708656767	405.776072126300	982.270374035657	1433.080314809884	575.005793105580	948.643082721003	1486.053623120053	393.137492381636	999.368345786347	932.792339742918	544.548554953243	990.809060629888	952.965661678806	270.110320938384	1064.889603341874	759.070541360682	516.208205811878	1021.279471986634	636.452552531567	587.167956760355	1108.902551002139	599.010610596968	506.251981309712	1142.048373944517	520.278109820304	521.546218678037	984.356183833539	724.281066861241	299.966724606219	862.115566567737	634.234989408745	241.017699467227	917.982329959973	539.864437707303	306.540986781977	901.134380050913	475.609524759151	317.360493715607	868.273518222357	410.787773693603	311.441214777491	766.484190874073	304.276990586317	265.812896739570	808.373011473929	191.297134579272	341.280609767020	1133.652435754440	433.778266940824	529.296333155159	1090.834593627592	312.977094265374	586.154600286510	1170.779604730177	237.014397505069	533.756676349717	1099.393074712658	44.662467896633	494.591041706253	1254.168413051177	128.759809106096	543.176781068029	1181.386360540295	45.407481372659	570.337045070356	1380.652461114815	100.128404583534	570.591343306093	671.356469233254	39.773992996034	393.087587597280	743.074365758513	35.103454155189	310.724926850274	827.667201626018	95.914442825733	333.924486397684	954.964285723759	41.079694029075	303.619463508768	1025.348731544890	1088.826941252739	100.803871377237	1278.782547372727	1086.420260991836	123.174935790839	818.949323242388	1130.635965918080	683.762222790520	764.062381649906	875.472907083998	691.516537339488	
